PathFileType	3	(X/Y/Z)	D:\minhoCalibration\240510\subject4_KPNP\preferred\preferred08.trc
DataRate	CameraRate	NumFrames	NumMarkers	Units	OrigDataRate	OrigDataStartFrame	OrigNumFrames
200.0	200.0	15	10	mm	200.0	189	89	
Frame#	Time	Left_Ankle_Outer1			Left_Ankle_Inner1			Left_Knee_Outer1			Left_Knee_Inner1			Left_Wrist1			Right_Wrist1			Right_Knee_Inner1			Right_Knee_Outer1			Right_Ankle_Inner1			Right_Ankle_Outer1			
		X1	Y1	Z1	X2	Y2	Z2	X3	Y3	Z3	X4	Y4	Z4	X5	Y5	Z5	X6	Y6	Z6	X7	Y7	Z7	X8	Y8	Z8	X9	Y9	Z9	X10	Y10	Z10	
189	0.935	-457.16489	394.66171	1578.1326	-397.83398	344.63058	1507.9648	-666.62604	606.4657	1166.8677	-570.2525	569.59473	1121.6044	-503.66544	1033.3323	1288.3123	-179.53308	906.84766	1381.9606	-275.80576	510.76578	1146.7172	-192.70227	514.90448	1218.3516	-405.93286	66.605476	1301.9108	-359.61096	75.31012	1333.2645
190	0.94	-461.81735	407.48004	1558.4008	-400.23999	358.38547	1489.9106	-663.75092	619.48022	1144.4116	-565.84448	583.46173	1100.8147	-499.33044	1041.5741	1279.5946	-181.31956	909.31226	1384.7064	-274.0618	512.33069	1149.6913	-192.71405	516.8114	1223.1985	-405.30734	67.882202	1301.9709	-359.29739	76.271645	1333.7306
191	0.945	-467.2525	420.62195	1538.8732	-404.12329	371.78186	1471.2966	-660.5155	633.40479	1121.8751	-561.73944	597.81024	1080.9576	-494.84634	1049.9463	1271.1995	-182.59888	911.9903	1387.4536	-272.64566	514.1189	1152.6703	-192.96898	518.73822	1228.0428	-404.67505	69.414543	1302.0825	-358.96875	77.392731	1334.1816
192	0.95	-473.51855	434.0863	1519.6903	-408.21317	385.86331	1453.3971	-656.97858	648.1991	1098.9945	-555.30267	612.77454	1060.4121	-489.7507	1058.2317	1263.0073	-184.53665	914.60071	1390.0127	-271.2887	515.59167	1155.38	-193.28957	520.73846	1232.671	-403.93469	70.940605	1302.0328	-357.94968	78.376305	1334.4108
193	0.955	-480.48535	448.02106	1500.5621	-413.80524	399.62155	1435.8042	-651.94958	663.16882	1076.1931	-549.22552	628.09167	1040.2531	-484.15384	1066.45	1255.3822	-185.95029	917.29773	1392.6857	-269.72977	517.46497	1157.6283	-193.50671	522.84399	1237.2965	-403.28448	72.695496	1301.9653	-358.73712	80.177757	1334.944
194	0.96	-488.39703	462.25327	1481.5614	-419.25677	414.18375	1419.3687	-645.65912	678.53223	1053.7449	-542.5412	643.62775	1020.7831	-478.61612	1074.8445	1247.962	-188.04613	919.96588	1395.1337	-268.30389	519.49689	1159.8667	-193.81853	525.30939	1241.7091	-403.05606	74.578941	1301.8147	-358.51779	81.779976	1335.1661
195	0.965	-497.32397	476.87488	1462.6041	-426.66196	428.09503	1402.0492	-638.7843	694.52856	1031.4241	-533.58508	659.55365	1000.8176	-472.98376	1083.1926	1240.9528	-190.53387	922.69519	1397.6696	-267.68118	521.42706	1162.812	-194.39619	527.61444	1245.4484	-402.53784	76.659508	1301.4441	-358.39957	83.559517	1335.3098
196	0.97	-507.15936	491.67221	1443.7773	-433.30881	442.57275	1386.739	-630.49286	710.87305	1009.5469	-524.54242	675.70404	981.9563	-467.00696	1091.4359	1234.2415	-193.25316	925.27325	1400.0823	-266.18329	523.44006	1164.5249	-194.6293	530.15222	1249.1699	-402.53986	79.065529	1301.194	-358.34549	85.40403	1335.2809
197	0.975	-517.91315	506.93195	1424.7451	-442.97607	458.01929	1370.4122	-621.42853	727.89575	987.46295	-515.32599	691.6142	964.09564	-460.93979	1099.5399	1227.9492	-196.13116	927.8111	1402.6791	-264.97839	525.73132	1166.5901	-194.76863	532.75397	1252.5961	-401.57034	81.009308	1300.0291	-358.6947	87.538818	1335.4502
198	0.98	-529.48999	522.56268	1405.9391	-452.62927	473.51352	1355.0935	-611.13843	745.24567	966.27551	-504.36139	707.83075	945.95123	-454.74805	1107.3856	1221.9746	-199.14662	930.16498	1405.3082	-263.05103	527.82343	1167.8494	-194.88611	535.3728	1255.6984	-401.20227	83.324524	1298.9508	-358.64352	89.446091	1334.5815
199	0.985	-541.75702	538.22418	1386.7874	-463.05234	488.79791	1339.6467	-599.51593	763.05994	945.65576	-492.83084	723.68237	929.0979	-448.15341	1114.8284	1216.4476	-202.58691	932.22589	1407.7783	-261.47836	530.38727	1169.5222	-194.91585	537.93054	1258.5342	-401.3685	85.8992	1297.9834	-359.00449	91.578506	1334.0239
200	0.99	-554.69702	554.67889	1367.4749	-474.63507	504.15421	1324.1057	-586.21033	781.00977	925.48944	-480.44086	739.93634	913.86041	-441.65384	1122.2209	1211.2772	-206.22169	934.07855	1410.4615	-258.6424	532.47577	1169.9622	-194.73213	540.44818	1261.2074	-400.74173	88.192787	1296.1646	-359.74344	94.121414	1333.6843
201	0.995	-568.12354	571.50714	1347.5692	-486.87195	519.81232	1308.667	-572.25635	799.33264	906.43945	-466.58112	756.41553	899.32178	-435.00186	1129.4022	1206.6525	-210.30435	935.47021	1413.2764	-256.30264	535.05182	1171.0944	-194.52399	542.98132	1263.8093	-399.96826	90.382111	1293.9534	-360.08228	96.254303	1332.3658
202	1	-581.98859	589.02637	1327.0072	-500.24582	535.53326	1293.022	-556.42554	817.74493	888.11877	-451.6572	772.29059	885.93286	-428.10748	1136.4664	1202.1459	-214.64174	936.76984	1416.2623	-252.78503	537.09186	1171.1595	-194.08725	545.62451	1266.5909	-400.54132	93.965149	1292.5922	-360.7114	98.749321	1331.231
203	1.005	-596.10712	606.89172	1305.7742	-514.09271	551.13641	1276.1992	-539.78906	836.36884	871.17383	-436.00513	787.89038	873.41095	-420.95306	1143.2559	1197.7573	-219.68565	938.52148	1420.2418	-249.77861	539.52344	1171.8428	-193.81366	548.04272	1268.7972	-400.54083	96.625969	1290.1539	-361.35739	101.38847	1329.869
